<svg xmlns="http://www.w3.org/2000/svg" width="167.75" height="30.75" viewBox="0 0 167.75 30.75">
  <defs>
    <style>
      .cls-1 {
        fill-rule: evenodd;
      }
    </style>
  </defs>
  <path id="Leonardo_Da_Vinci" data-name="Leonardo Da Vinci" class="cls-1" d="M138.168,49.558c0,0.211.215,0.317,0.643,0.317a2.572,2.572,0,0,0,1.827-.82,4.48,4.48,0,0,1,1.435-1.039,1.175,1.175,0,0,1,.423-0.078,2.015,2.015,0,0,1,1.218.5,12.381,12.381,0,0,1,1.779,1.719q0.875,1.016,1.651,2.023a6.319,6.319,0,0,0,1.314,1.367,1.388,1.388,0,0,0,.769.219,2.66,2.66,0,0,0,1.016-.236,9.268,9.268,0,0,0,2.187-1.37,13.144,13.144,0,0,0,1.875-1.937,3.608,3.608,0,0,0,.938-1.748,0.315,0.315,0,0,0-.219-0.252q-0.219-.11-0.438.268a2.136,2.136,0,0,1-1.922,1.15,3.391,3.391,0,0,1-.875-0.126,11.3,11.3,0,0,1-3.814-2.008,6.9,6.9,0,0,0-3.744-1.6q-0.325-.016-0.094-0.366a9.024,9.024,0,0,0,1.141-4.532V40.516a18.681,18.681,0,0,0-.094-2.147q-0.139-1.266-.385-2.442-0.123-.779-0.338-2.143a24.987,24.987,0,0,1-.277-2.855q-0.016-.424-0.016-0.832a13.678,13.678,0,0,1,.141-1.993,3.493,3.493,0,0,1,.894-2.041,1.106,1.106,0,0,1,.706-0.424,0.605,0.605,0,0,1,.521.484,6.209,6.209,0,0,1,.332,2.231v0.312a15.655,15.655,0,0,1-.411,3.229,4.124,4.124,0,0,1-.9,2.122,0.093,0.093,0,0,0,.014.156,0.287,0.287,0,0,0,.309-0.031,15.79,15.79,0,0,0,2.133-1.443,15.448,15.448,0,0,0,1.531-1.241,3.191,3.191,0,0,0,.371-1.81c-0.011-.114-0.016-0.234-0.016-0.359a9.619,9.619,0,0,0-.589-3.01,3.989,3.989,0,0,0-1.582-2,1.426,1.426,0,0,0-.683-0.2,3.113,3.113,0,0,0-1.892,1,12.193,12.193,0,0,0-2.846,3.633,9.085,9.085,0,0,0-.861,3.539c-0.01.2-.016,0.4-0.016,0.609a18.04,18.04,0,0,0,.352,3.265q0.4,2.047.742,4.61a21.753,21.753,0,0,1,.11,2.242v0.153a10.32,10.32,0,0,1-.266,2.484,0.638,0.638,0,0,1-.375.518,5.521,5.521,0,0,0-2.228,1.459A17.26,17.26,0,0,0,138.435,49a1.043,1.043,0,0,0-.267.555h0Zm13.156-7.37a9.157,9.157,0,0,0,.489,3.109,2.56,2.56,0,0,0,1.541,1.8,1.726,1.726,0,0,0,.458.062,2.724,2.724,0,0,0,1.868-1A13.581,13.581,0,0,0,158,42.844a27.521,27.521,0,0,0,1.492-3.234,0.33,0.33,0,0,0,.016-0.109,0.567,0.567,0,0,0-.219-0.406q-0.312-.312-0.453.3a9.407,9.407,0,0,1-1.46,3.367,2.478,2.478,0,0,1-1.712,1.164h-0.047q-1.054,0-1.621-1.531a0.808,0.808,0,0,1,.159-0.906q0.345-.375.783-0.883a13.242,13.242,0,0,0,.862-1.117,11.4,11.4,0,0,0,1.332-2.5,4.412,4.412,0,0,0,.3-1.578,4.494,4.494,0,0,0-.172-1.219A1.386,1.386,0,0,0,156,32.969h-0.061a2.921,2.921,0,0,0-1.8,1.031,8.328,8.328,0,0,0-1.616,2.406,13.732,13.732,0,0,0-1.114,4.375,13.335,13.335,0,0,0-.078,1.406h0Zm2.188-3.219q0.015-1.031.126-2.094,0.189-1.812.663-2.109a0.258,0.258,0,0,1,.11-0.031q0.394-.015.647,1.891a5.3,5.3,0,0,1,.063.813,5.8,5.8,0,0,1-1.025,3.25,0.782,0.782,0,0,1-.363.375A0.092,0.092,0,0,1,153.67,41a2.742,2.742,0,0,1-.095-0.609q-0.048-.7-0.063-1.422h0Zm4.859,2.516a12.846,12.846,0,0,0,.375,3.156q0.766,3.032,2.5,3.031a2,2,0,0,0,.485-0.062,3.478,3.478,0,0,0,1.734-.977,8.462,8.462,0,0,0,1.375-1.8,12.281,12.281,0,0,0,.961-2.148,13.516,13.516,0,0,0,.523-1.93,1.014,1.014,0,0,1,.266-0.559,25.223,25.223,0,0,0,2.328-2.683,0.944,0.944,0,0,0,.031-0.233,0.573,0.573,0,0,0-.156-0.388q-0.219-.2-0.437.233-0.235.4-.633,0.961a5.529,5.529,0,0,1-.93,1.008q-0.328.264-.328-0.124v-0.4a10.973,10.973,0,0,0-.516-3.448,2.969,2.969,0,0,0-1.312-1.771,2.7,2.7,0,0,0-1.25-.314,2,2,0,0,0-.547.047,4.6,4.6,0,0,0-3.234,2.531,8.863,8.863,0,0,0-.883,2.438,15.014,15.014,0,0,0-.32,2.453q-0.031.5-.032,0.984h0Zm3.12-6.721a0.531,0.531,0,0,1,.438-0.279q0.5,0,1.2,1.272a13.236,13.236,0,0,1,1.359,4.513,0.263,0.263,0,0,1-.2.357,2.836,2.836,0,0,1-.656.078,2.628,2.628,0,0,1-1.766-.713,3.143,3.143,0,0,1-1.151-2.481c0-.124.006-0.248,0.017-0.372a4.886,4.886,0,0,1,.759-2.373h0Zm-0.12,6.737a0.523,0.523,0,0,1,.157.031,7.3,7.3,0,0,0,1.328.3,3.048,3.048,0,0,0,.437.031,2.285,2.285,0,0,0,1.063-.25q0.249-.141.281,0.188a10.9,10.9,0,0,1-.109,1.57,2.919,2.919,0,0,1-.438,1.227,1.059,1.059,0,0,1-.859.531,1.3,1.3,0,0,1-.282-0.031,2.08,2.08,0,0,1-1.156-1.016,4.662,4.662,0,0,1-.64-2.266c0-.208.072-0.312,0.218-0.312h0Zm6.035-3.484q0.038,0.656.05,1.461t0.025,1.664q0,0.875.007,1.758t0.008,1.68v1.508q0,0.7.016,1.18c0,0.167.031,0.25,0.094,0.25h0.016a2.486,2.486,0,0,0,.657-0.672,2.884,2.884,0,0,1,.758-0.68,1.782,1.782,0,0,1,.806-0.336q0.5-.015.532-0.266a0.715,0.715,0,0,0,0-.312,0.807,0.807,0,0,1-.078-0.562q0.312-1.515,1.11-4.266,0.376-1.266.736-2.344a8.511,8.511,0,0,1,.594-1.469q0.2-.343.109,0.188-0.11.656-.432,2.258a28.7,28.7,0,0,0-.464,3.32q-0.063.672-.063,1.3a11.688,11.688,0,0,0,.141,1.859,1.914,1.914,0,0,0,1.2,1.75,1.583,1.583,0,0,0,.531.094,1.663,1.663,0,0,0,1.187-.531,8.6,8.6,0,0,0,1.485-1.891,16.153,16.153,0,0,0,1.07-2.172q0.429-1.078.524-1.375a1.653,1.653,0,0,0,.093-0.516,0.77,0.77,0,0,0-.187-0.562q-0.343-.39-0.469.328a14.745,14.745,0,0,1-.3,1.516,6.766,6.766,0,0,1-.613,1.391,1.235,1.235,0,0,1-.707.672,0.457,0.457,0,0,1-.11.016q-0.581,0-.817-1.844a19.666,19.666,0,0,1-.157-2.516q-0.017-.64-0.016-1.266,0-1.453.079-2.828A16.173,16.173,0,0,1,175,33.719q0.2-.484-0.047-0.484a0.5,0.5,0,0,0-.14.031,2.288,2.288,0,0,0-.772.406,10.427,10.427,0,0,0-1.73,2.7q-1.02,2.063-1.85,4.188-0.291.782-.244-0.094,0.015-1.562.111-3.3t0.3-3.32q0.122-.765-0.388-0.031a4.3,4.3,0,0,1-1.883,1.344q-1.173.516-1.173,0.953a0.357,0.357,0,0,0,.037.156,8.187,8.187,0,0,1,.185,1.75h0Zm9.873,5.878a7.2,7.2,0,0,0,.35,1.337,4.438,4.438,0,0,0,.571,1.178,1.056,1.056,0,0,0,.842.514,0.457,0.457,0,0,0,.413-0.161,5.046,5.046,0,0,0,.7-1.479,20.582,20.582,0,0,1,.908-2.2,0.642,0.642,0,0,1,.28-0.369q0.125,0,.124.535,0,0.347.047,0.995a14.008,14.008,0,0,0,.2,1.477,4.185,4.185,0,0,0,.453,1.311,0.86,0.86,0,0,0,.735.558,1.823,1.823,0,0,0,1.226-.9,15.083,15.083,0,0,0,1.25-2q0.587-1.114,1.008-2.12t0.516-1.253a1.549,1.549,0,0,0,.109-0.526,0.9,0.9,0,0,0-.156-0.519q-0.282-.389-0.485.325-0.171.681-.326,1.387a6.43,6.43,0,0,1-.45,1.338,2.415,2.415,0,0,1-.824,1.087,0.286,0.286,0,0,1-.155.049q-0.342,0-.575-1.1a12.551,12.551,0,0,1-.263-2.45q-0.016-.568-0.016-0.989,0-.633.031-0.941a2.511,2.511,0,0,0,0-.954,1.021,1.021,0,0,0-.66.515q-1.04,1.153-1.18,1.258a0.8,0.8,0,0,0-.236.3q-0.345.73-.858,1.89a6.5,6.5,0,0,1-.668,1.306,0.515,0.515,0,0,1-.372.211,0.841,0.841,0,0,1-.606-0.519,4.654,4.654,0,0,1-.357-2.142q0-.506.046-1.14a12.386,12.386,0,0,1,.288-1.971,4.768,4.768,0,0,1,.662-1.7,1.4,1.4,0,0,1,.575-0.507,0.942,0.942,0,0,1,.716,0,1.363,1.363,0,0,1,.778,1.406,1.174,1.174,0,0,0,.016.2,2.951,2.951,0,0,1-.22,1.344,0.673,0.673,0,0,1-.57.437,0.278,0.278,0,0,0-.334.275q-0.048.422,0.383,0.194a3.894,3.894,0,0,0,.823-0.589,8.426,8.426,0,0,0,.954-1.052,10.969,10.969,0,0,0,.987-1.46,4.387,4.387,0,0,0,.548-1.507,2.677,2.677,0,0,0,.015-0.283,1.6,1.6,0,0,0-.343-1.047,1.156,1.156,0,0,0-.953-0.453,1.55,1.55,0,0,0-.22.016,3.992,3.992,0,0,0-1.432.634,9.172,9.172,0,0,0-1.291,1.078,10.2,10.2,0,0,0-.787.856,10.705,10.705,0,0,0-1.794,3.407,12.031,12.031,0,0,0-.535,3.613V42.8A7.253,7.253,0,0,0,177.279,43.894Zm7.327,3.169c0.01,0.084.083,0.125,0.218,0.125a1.111,1.111,0,0,0,.235-0.031,2.091,2.091,0,0,0,1.344-.8,6.03,6.03,0,0,0,.812-3.391q0.063-1.953.063-4.359V37.625q0-.255.171-0.207a2.767,2.767,0,0,0,.95.176,2.362,2.362,0,0,0,1.009-.224,0.169,0.169,0,0,1,.156.016,0.11,0.11,0,0,1,.015.16,9.148,9.148,0,0,0-1.226,3.157,16.927,16.927,0,0,0-.435,3.391,5.056,5.056,0,0,0,.2,1.609,1.686,1.686,0,0,0,1.071,1.125,1.274,1.274,0,0,0,.435.078,2.039,2.039,0,0,0,1.394-.687,5.208,5.208,0,0,0,.7-0.836,9.75,9.75,0,0,0,.517-0.836,15.011,15.011,0,0,0,1.036-2.094q0.422-1.125.515-1.344a1.772,1.772,0,0,0,.094-0.531,0.828,0.828,0,0,0-.141-0.484q-0.3-.344-0.468.312-0.174.609-.291,1.18a5.7,5.7,0,0,1-.338,1.086q-0.141.313-.33,0.672a1.678,1.678,0,0,1-.424.547,0.776,0.776,0,0,1-.487.234,1.091,1.091,0,0,1-.769-0.922,6.086,6.086,0,0,1-.346-2.094A8.149,8.149,0,0,1,190.372,40a15,15,0,0,1,.832-3.157,2.029,2.029,0,0,0,.142-0.962q-0.079-.331-0.378-0.082a1.458,1.458,0,0,1-.97.341,2.473,2.473,0,0,1-.777-0.14,5.043,5.043,0,0,1-1.772-.9,0.629,0.629,0,0,1-.187-0.512q0-.885.047-1.708a12.154,12.154,0,0,1,.125-1.475c0.01-.155-0.021-0.233-0.094-0.233a0.4,0.4,0,0,0-.219.125,4.891,4.891,0,0,1-.875.686l-0.468.327c-0.136.094-.245,0.172-0.329,0.234a0.214,0.214,0,0,0-.031.343,7.04,7.04,0,0,1,.625,3.119c0.01,0.354.016,0.712,0.016,1.076q0,1.627-.141,3.395a41.626,41.626,0,0,1-.547,4.145,6.651,6.651,0,0,1-.578,2.143,0.582,0.582,0,0,0-.187.3h0Zm9.113-1.719a2.37,2.37,0,0,0,1.333,1.391,0.3,0.3,0,0,0,.36-0.125,11.357,11.357,0,0,0,1.178-2.531,6.689,6.689,0,0,1,1.563-2.672q0.156-.125.156,0.172,0,0.36-.047,1.391-0.015.438-.015,0.891,0,0.609.031,1.234a6.761,6.761,0,0,0,.31,1.937,0.963,0.963,0,0,0,.883.828h0.046a1.905,1.905,0,0,0,1.247-1.055,21.359,21.359,0,0,0,1.325-2.32q0.62-1.266,1.077-2.414t0.55-1.4a1.616,1.616,0,0,0,.093-0.5,0.811,0.811,0,0,0-.188-0.547q-0.327-.375-0.437.328a7.973,7.973,0,0,1-.425,1.7,10.972,10.972,0,0,1-.769,1.477,1,1,0,0,1-.629.594,0.417,0.417,0,0,1-.33-0.313,7.061,7.061,0,0,1-.5-2.109q-0.15-1.359-.165-2.766V36.844q0.174-4.156.362-6.391a7.841,7.841,0,0,1,.565-2.844,1.987,1.987,0,0,0,.346-0.828,0.157,0.157,0,0,0-.126-0.172H201.44a1.039,1.039,0,0,0-.707.484,6.9,6.9,0,0,1-1.144.93,3.114,3.114,0,0,1-1.2.649q-0.5,0-.52.164a0.219,0.219,0,0,0,.024.2,8.231,8.231,0,0,1,.163,1.117q0.117,1.024.226,2.524,0.045,0.8.1,1.672t0.1,1.766c0,0.271-.053.287-0.157,0.047a1.924,1.924,0,0,0-1.477-1.344h-0.062q-1.471,0-3.272,2.922a6.147,6.147,0,0,0-.86,3.328v0.266a8.815,8.815,0,0,0,1.066,4.016h0Zm1.246-7.281a4.036,4.036,0,0,1,.171-1.359,0.5,0.5,0,0,1,.436-0.437,1.23,1.23,0,0,1,.186.047,2.587,2.587,0,0,1,.934.672,9.478,9.478,0,0,1,.964,1.234,9.05,9.05,0,0,1,.7,1.219,0.78,0.78,0,0,1,.062.281,0.45,0.45,0,0,1-.046.2q-0.3.485-.973,1.438a2.864,2.864,0,0,1-.91,1,1.421,1.421,0,0,1-.2.016,0.8,0.8,0,0,1-.762-0.609,8.32,8.32,0,0,1-.42-1.984,9.712,9.712,0,0,1-.14-1.719h0Zm7.578,3.422a12.846,12.846,0,0,0,.375,3.156q0.765,3.032,2.5,3.031a2,2,0,0,0,.485-0.062,3.478,3.478,0,0,0,1.734-.977,8.462,8.462,0,0,0,1.375-1.8,12.356,12.356,0,0,0,.961-2.148,13.516,13.516,0,0,0,.523-1.93,1.007,1.007,0,0,1,.266-0.559,25.223,25.223,0,0,0,2.328-2.683,0.944,0.944,0,0,0,.031-0.233,0.573,0.573,0,0,0-.156-0.388q-0.219-.2-0.437.233-0.235.4-.633,0.961a5.529,5.529,0,0,1-.93,1.008q-0.328.264-.328-0.124v-0.4a10.973,10.973,0,0,0-.516-3.448,2.969,2.969,0,0,0-1.312-1.771,2.7,2.7,0,0,0-1.25-.314,1.992,1.992,0,0,0-.547.047,4.6,4.6,0,0,0-3.234,2.531,8.863,8.863,0,0,0-.883,2.438,15.131,15.131,0,0,0-.321,2.453q-0.032.5-.031,0.984h0Zm3.12-6.721a0.531,0.531,0,0,1,.438-0.279q0.5,0,1.2,1.272a13.258,13.258,0,0,1,1.359,4.513,0.263,0.263,0,0,1-.2.357,2.843,2.843,0,0,1-.656.078,2.626,2.626,0,0,1-1.766-.713,3.143,3.143,0,0,1-1.151-2.481c0-.124.006-0.248,0.017-0.372a4.886,4.886,0,0,1,.759-2.373h0Zm-0.12,6.737a0.512,0.512,0,0,1,.156.031,7.332,7.332,0,0,0,1.329.3,3.048,3.048,0,0,0,.437.031,2.285,2.285,0,0,0,1.063-.25q0.249-.141.281,0.188a10.756,10.756,0,0,1-.11,1.57,2.919,2.919,0,0,1-.437,1.227,1.059,1.059,0,0,1-.859.531,1.3,1.3,0,0,1-.282-0.031,2.08,2.08,0,0,1-1.156-1.016,4.673,4.673,0,0,1-.641-2.266q0-.312.219-0.312h0Zm14.122-2.516h0.1q1.972-.047,4.852-2.532,0.35-.314.89-0.88a2.638,2.638,0,0,0,.669-1.007,1.348,1.348,0,0,0-.017-0.613q-0.079-.33-0.288-0.2a2.447,2.447,0,0,0-.369.7,2.586,2.586,0,0,1-.736,1.014,4.055,4.055,0,0,1-2.435,1.148,1.865,1.865,0,0,1-.641-0.11,2.877,2.877,0,0,1-1.746-1.95,5.347,5.347,0,0,1-.256-1.7,7.873,7.873,0,0,1,.191-1.664,6.3,6.3,0,0,1,1.959-3.344,6.97,6.97,0,0,1,1.289-.895,7.071,7.071,0,0,1,1.609-.644,9.42,9.42,0,0,1,1.959-.281q0.27-.015.525-0.015a12.554,12.554,0,0,1,1.672.116q0.429,0.078.033,0.3a9.8,9.8,0,0,1-1.487.707,0.841,0.841,0,0,0-.688.645,0.492,0.492,0,0,0,.016.126,14.017,14.017,0,0,1,.406,2.35q0.141,1.407.188,3.074,0.015,0.66.015,1.368,0,1.049-.031,2.16-0.047,1.846-.125,3.662-0.071,1.831-.159,3.542t-0.16,3.1q-0.082,1.375-.141,2.359t-0.071,1.359c0,0.135.036,0.2,0.109,0.2h0.016a1.259,1.259,0,0,1,.422-0.359,4.977,4.977,0,0,1,1.172-.7,3.139,3.139,0,0,1,1.171-.281q0.579-.032.579-0.391a0.635,0.635,0,0,0-.185-0.375,0.971,0.971,0,0,1-.237-0.563,0.712,0.712,0,0,1,.25-0.562q0.468-.453.57,0.039a4.617,4.617,0,0,0,.57,1.289,2.036,2.036,0,0,0,1.469,1.266h0.063a2.355,2.355,0,0,0,1.377-.61,19.545,19.545,0,0,0,4.353-5.753,21.065,21.065,0,0,0,2.254-7.317,15.563,15.563,0,0,0,.094-1.673,11.516,11.516,0,0,0-1.22-5.341,9.891,9.891,0,0,0-3.924-4.154,11.281,11.281,0,0,0-5.254-1.434,2.809,2.809,0,0,0-.3-0.015,13.5,13.5,0,0,0-5.175,1.062,12.6,12.6,0,0,0-4.6,3.233,12.057,12.057,0,0,0-2.627,4.654,8.532,8.532,0,0,0-.438,2.546,4.8,4.8,0,0,0,.255,1.6,2.189,2.189,0,0,0,2.211,1.746h0Zm9.769-1.434V35.669q0.016-1.9.065-3.589,0.1-3.589.263-5.407a0.276,0.276,0,0,1,.266-0.329,0.294,0.294,0,0,1,.093.016,9.368,9.368,0,0,1,5.219,3.376,13.968,13.968,0,0,1,2.688,5.936,17.079,17.079,0,0,1,.328,3.3A15.718,15.718,0,0,1,238,42.324a10.944,10.944,0,0,1-2.859,5.518,1.54,1.54,0,0,1-.984.564,0.6,0.6,0,0,1-.437-0.189,3.743,3.743,0,0,1-.875-1.4q-0.375-.9-0.718-1.686a0.746,0.746,0,0,0-.578-0.567,0.485,0.485,0,0,0-.266.094,5.3,5.3,0,0,0-1.234,1.453q-0.375.563-.409,0.014-0.078-1.348-.133-3.088t-0.07-3.636V37.55Zm12.283,6.344a7.2,7.2,0,0,0,.349,1.337,4.439,4.439,0,0,0,.572,1.178,1.054,1.054,0,0,0,.841.514,0.456,0.456,0,0,0,.413-0.161,5.02,5.02,0,0,0,.7-1.479,20.587,20.587,0,0,1,.909-2.2,0.642,0.642,0,0,1,.279-0.369q0.124,0,.125.535c0,0.231.015,0.563,0.047,0.995a13.75,13.75,0,0,0,.2,1.477,4.185,4.185,0,0,0,.453,1.311,0.86,0.86,0,0,0,.734.558,1.824,1.824,0,0,0,1.227-.9,15.187,15.187,0,0,0,1.25-2q0.585-1.114,1.007-2.12t0.516-1.253a1.525,1.525,0,0,0,.109-0.526,0.9,0.9,0,0,0-.156-0.519q-0.281-.389-0.484.325-0.171.681-.326,1.387a6.432,6.432,0,0,1-.451,1.338,2.414,2.414,0,0,1-.823,1.087,0.291,0.291,0,0,1-.155.049q-0.342,0-.575-1.1a12.623,12.623,0,0,1-.264-2.45c-0.01-.378-0.016-0.708-0.016-0.989q0-.633.032-0.941a2.523,2.523,0,0,0,0-.954,1.025,1.025,0,0,0-.66.515q-1.038,1.153-1.18,1.258a0.793,0.793,0,0,0-.235.3q-0.346.73-.858,1.89a6.563,6.563,0,0,1-.668,1.306,0.516,0.516,0,0,1-.373.211,0.841,0.841,0,0,1-.606-0.519,4.654,4.654,0,0,1-.357-2.142q0-.506.047-1.14a12.386,12.386,0,0,1,.288-1.971,4.769,4.769,0,0,1,.661-1.7,1.4,1.4,0,0,1,.576-0.507,0.942,0.942,0,0,1,.716,0,1.364,1.364,0,0,1,.778,1.406,1.287,1.287,0,0,0,.015.2,2.937,2.937,0,0,1-.22,1.344,0.671,0.671,0,0,1-.57.437,0.278,0.278,0,0,0-.334.275q-0.047.422,0.384,0.194a3.914,3.914,0,0,0,.822-0.589,8.346,8.346,0,0,0,.955-1.052,10.953,10.953,0,0,0,.986-1.46,4.366,4.366,0,0,0,.548-1.507,2.679,2.679,0,0,0,.016-0.283,1.6,1.6,0,0,0-.344-1.047,1.155,1.155,0,0,0-.953-0.453,1.561,1.561,0,0,0-.22.016,3.992,3.992,0,0,0-1.432.634,9.22,9.22,0,0,0-1.29,1.078,10.026,10.026,0,0,0-.787.856,10.665,10.665,0,0,0-1.794,3.407,12.031,12.031,0,0,0-.535,3.613V42.8A7.253,7.253,0,0,0,241.717,43.894Zm16.529-8.988c0.1,0,.219-0.005.344-0.015a5.691,5.691,0,0,0,3.25-1.293,6.936,6.936,0,0,0,1.984-2.639,0.371,0.371,0,0,0-.187-0.507,0.313,0.313,0,0,0-.453.182,3.647,3.647,0,0,1-.557,1.529,2.254,2.254,0,0,1-1.137.9,2.2,2.2,0,0,1-.753.142,1.615,1.615,0,0,1-.517-0.079,1.711,1.711,0,0,1-.933-0.835,3.715,3.715,0,0,1-.4-1.734V30.24a5.258,5.258,0,0,1,.267-1.718,4.157,4.157,0,0,1,.94-1.671,2.823,2.823,0,0,1,1.929-.946,2.288,2.288,0,0,1,1.126.315,6.464,6.464,0,0,1,2.533,3.256q0.516,1.227.978,2.713t0.883,3.091q0.765,3.109,1.328,6.516,0.531,3.453.688,5.688,0.078,1.11.078,1.875a5.344,5.344,0,0,1-.125,1.391,0.208,0.208,0,0,0,.109.266,0.142,0.142,0,0,0,.063.016,0.339,0.339,0,0,0,.25-0.2c0.134-.25.249-0.475,0.347-0.673a2.417,2.417,0,0,1,.456-0.611q0.339-.36,1.12-1.111a7.379,7.379,0,0,0,.78-0.8q-0.031-.438-0.031-0.924a24.118,24.118,0,0,1,.609-4.847,51.581,51.581,0,0,1,2.078-7.178q0.657-1.8,1.414-3.518t1.571-3.206a15.056,15.056,0,0,1,3.234-4.407,0.166,0.166,0,0,0,.047-0.123,0.432,0.432,0,0,0-.063-0.247,0.257,0.257,0,0,0-.2-0.154,0.282,0.282,0,0,0-.172.078,3.433,3.433,0,0,1-1.968.686,2.908,2.908,0,0,0-1.688.5,13.449,13.449,0,0,0-2.055,3.175,32.318,32.318,0,0,0-1.679,4.3q-0.766,2.372-1.363,5.048t-1.068,5.4c-0.053.25-.121,0.371-0.2,0.36a0.445,0.445,0,0,1-.158-0.436q-0.44-4.567-1.164-9.056-0.432-2.13-.781-3.853a12.484,12.484,0,0,0-.723-2.538,4.115,4.115,0,0,0-3.115-2.521,3.638,3.638,0,0,0-.685-0.063,6.428,6.428,0,0,0-1.822.328,9.117,9.117,0,0,0-3.006,1.8,11.049,11.049,0,0,0-3.131,3.953,6.091,6.091,0,0,0-.592,2.422,3.263,3.263,0,0,0,.156,1.023,2.165,2.165,0,0,0,2.172,1.274h0Zm19.39,10.625a2.093,2.093,0,0,0,1.288,1.25,1.445,1.445,0,0,0,.506.094,1.635,1.635,0,0,0,1.14-.516,8.035,8.035,0,0,0,1.387-1.8,15.389,15.389,0,0,0,1-2.078q0.4-1.031.508-1.328a1.8,1.8,0,0,0,.093-0.531,0.772,0.772,0,0,0-.156-0.484q-0.282-.359-0.454.328a8.675,8.675,0,0,1-.416,1.672,6.417,6.417,0,0,1-.808,1.547,1.289,1.289,0,0,1-.864.641,0.537,0.537,0,0,1-.314-0.141,2.382,2.382,0,0,1-.612-1.453,15.815,15.815,0,0,1-.157-2.484q0.015-.594.031-1.266,0.015-.953.054-1.7t0.086-1.523q0.033-.765-0.416-0.047a4.543,4.543,0,0,1-1.134.992,1.93,1.93,0,0,0-.893,1.164,19.5,19.5,0,0,0-.383,2.609,16.382,16.382,0,0,0-.095,1.688,10.408,10.408,0,0,0,.063,1.188A7.389,7.389,0,0,0,277.636,45.531Zm-0.358-12.578a0.854,0.854,0,0,0,.429.852,2.154,2.154,0,0,0,.961.211h0.2a4.719,4.719,0,0,0,1.219-.211q0.563-.179.594-0.18a0.275,0.275,0,0,0,.234-0.172,0.305,0.305,0,0,0-.2-0.2c-0.122-.052-0.379-0.169-0.774-0.352s-0.6-.81-0.607-1.883q0-.25-0.1-0.25a0.506,0.506,0,0,0-.256.219,2.243,2.243,0,0,1-1.023.836,1.007,1.007,0,0,0-.672.883,2.39,2.39,0,0,0-.015.25h0Zm5.175,5.063q0.038,0.656.05,1.461t0.025,1.664q0,0.875.007,1.758t0.008,1.68v1.508q0,0.7.016,1.18c0,0.167.031,0.25,0.094,0.25h0.015a2.455,2.455,0,0,0,.657-0.672,2.906,2.906,0,0,1,.759-0.68,1.782,1.782,0,0,1,.806-0.336q0.5-.015.532-0.266a0.715,0.715,0,0,0,0-.312,0.813,0.813,0,0,1-.079-0.562q0.314-1.515,1.111-4.266,0.376-1.266.736-2.344a8.429,8.429,0,0,1,.594-1.469q0.2-.343.109,0.188-0.109.656-.432,2.258a28.7,28.7,0,0,0-.464,3.32q-0.063.672-.063,1.3a11.809,11.809,0,0,0,.14,1.859,1.916,1.916,0,0,0,1.2,1.75,1.583,1.583,0,0,0,.531.094A1.663,1.663,0,0,0,290,46.844a8.6,8.6,0,0,0,1.485-1.891,16.153,16.153,0,0,0,1.07-2.172q0.429-1.078.523-1.375a1.628,1.628,0,0,0,.094-0.516,0.774,0.774,0,0,0-.187-0.562q-0.345-.39-0.469.328a14.745,14.745,0,0,1-.3,1.516,6.766,6.766,0,0,1-.613,1.391,1.235,1.235,0,0,1-.707.672,0.463,0.463,0,0,1-.11.016q-0.582,0-.817-1.844a19.666,19.666,0,0,1-.157-2.516q-0.017-.64-0.016-1.266,0-1.453.079-2.828a16.173,16.173,0,0,1,.173-2.078q0.2-.484-0.047-0.484a0.5,0.5,0,0,0-.14.031,2.288,2.288,0,0,0-.772.406,10.427,10.427,0,0,0-1.73,2.7q-1.02,2.063-1.85,4.188-0.291.782-.244-0.094,0.015-1.562.111-3.3t0.3-3.32q0.121-.765-0.388-0.031a4.3,4.3,0,0,1-1.883,1.344q-1.173.516-1.173,0.953a0.357,0.357,0,0,0,.037.156,8.187,8.187,0,0,1,.185,1.75h0Zm9.575,2.953a13.915,13.915,0,0,0,.611,4.125q0.732,2.422,1.94,2.422h0.031a2.594,2.594,0,0,0,1.821-1.172,17.691,17.691,0,0,0,1.75-2.617q0.809-1.461,1.39-2.8t0.738-1.75a0.306,0.306,0,0,0,.015-0.094,0.6,0.6,0,0,0-.234-0.422q-0.312-.312-0.453.3a8.456,8.456,0,0,1-1.343,3.234,2.439,2.439,0,0,1-1.768,1.2h-0.078a2.191,2.191,0,0,1-1.823-1.328,7.178,7.178,0,0,1-.754-3.656V37.938a12.307,12.307,0,0,1,.338-2.672,2.539,2.539,0,0,1,.889-1.531,0.6,0.6,0,0,1,.613-0.062,1.086,1.086,0,0,1,.472.625,3.852,3.852,0,0,1,.141,1.078v0.219a9.037,9.037,0,0,1-.377,1.969,2.806,2.806,0,0,0-.189.844h0.016a4.373,4.373,0,0,0,1-.8q0.343-.328.929-0.789a1.884,1.884,0,0,0,.7-0.836,4.56,4.56,0,0,0,.109-1V34.828a6,6,0,0,0-.25-1.594,1.571,1.571,0,0,0-1.375-1.375h-0.031a2.636,2.636,0,0,0-1.689.828,8.268,8.268,0,0,0-1.658,2.172,11.988,11.988,0,0,0-1.451,5.031q-0.03.547-.03,1.078h0Zm7.952,4.562a2.091,2.091,0,0,0,1.288,1.25,1.441,1.441,0,0,0,.506.094,1.639,1.639,0,0,0,1.14-.516,8.032,8.032,0,0,0,1.386-1.8,15.279,15.279,0,0,0,1-2.078q0.4-1.031.508-1.328a1.8,1.8,0,0,0,.093-0.531,0.773,0.773,0,0,0-.157-0.484q-0.28-.359-0.453.328a8.675,8.675,0,0,1-.416,1.672,6.421,6.421,0,0,1-.809,1.547,1.286,1.286,0,0,1-.863.641,0.537,0.537,0,0,1-.314-0.141,2.388,2.388,0,0,1-.613-1.453,15.938,15.938,0,0,1-.157-2.484q0.017-.594.032-1.266,0.015-.953.054-1.7t0.086-1.523q0.033-.765-0.416-0.047a4.531,4.531,0,0,1-1.135.992,1.932,1.932,0,0,0-.892,1.164,19.5,19.5,0,0,0-.383,2.609,16.4,16.4,0,0,0-.1,1.688,10.173,10.173,0,0,0,.064,1.188A7.358,7.358,0,0,0,299.98,45.531Zm-0.359-12.578a0.853,0.853,0,0,0,.43.852,2.151,2.151,0,0,0,.961.211h0.2a4.719,4.719,0,0,0,1.219-.211q0.563-.179.594-0.18a0.275,0.275,0,0,0,.234-0.172,0.305,0.305,0,0,0-.2-0.2q-0.183-.078-0.774-0.352t-0.607-1.883q0-.25-0.1-0.25a0.506,0.506,0,0,0-.256.219,2.243,2.243,0,0,1-1.023.836,1,1,0,0,0-.672.883,2.165,2.165,0,0,0-.016.25h0Z" transform="translate(-138.156 -23.031)"/>
</svg>
